<mxfile host="app.diagrams.net" modified="2021-03-09T06:39:59.618Z" agent="5.0 (Windows NT 10.0; Win64; x64) AppleWebKit/537.36 (KHTML, like Gecko) Chrome/89.0.4389.72 Safari/537.36 Edg/89.0.774.45" etag="imdfL8TgvOHUnhtyxcNc" version="14.4.5" type="github">
  <diagram id="r5umxBR1MO3i9Swh8Mfo" name="第 1 页">
    <mxGraphModel dx="1422" dy="1941" grid="1" gridSize="10" guides="1" tooltips="1" connect="1" arrows="1" fold="1" page="1" pageScale="1" pageWidth="827" pageHeight="1169" math="0" shadow="0">
      <root>
        <mxCell id="0" />
        <mxCell id="1" parent="0" />
        <mxCell id="_dm25giHvy8EGH1Nbq3g-23" value="" style="edgeStyle=orthogonalEdgeStyle;rounded=0;orthogonalLoop=1;jettySize=auto;html=1;" parent="1" source="_dm25giHvy8EGH1Nbq3g-2" target="_dm25giHvy8EGH1Nbq3g-4" edge="1">
          <mxGeometry relative="1" as="geometry" />
        </mxCell>
        <mxCell id="_dm25giHvy8EGH1Nbq3g-2" value="第三方访问" style="verticalLabelPosition=bottom;verticalAlign=top;html=1;shape=mxgraph.flowchart.on-page_reference;" parent="1" vertex="1">
          <mxGeometry x="210" y="640" width="60" height="60" as="geometry" />
        </mxCell>
        <mxCell id="_dm25giHvy8EGH1Nbq3g-9" value="" style="edgeStyle=orthogonalEdgeStyle;rounded=0;orthogonalLoop=1;jettySize=auto;html=1;" parent="1" source="_dm25giHvy8EGH1Nbq3g-4" target="_dm25giHvy8EGH1Nbq3g-8" edge="1">
          <mxGeometry relative="1" as="geometry" />
        </mxCell>
        <mxCell id="_dm25giHvy8EGH1Nbq3g-10" value="未找到" style="edgeLabel;html=1;align=center;verticalAlign=middle;resizable=0;points=[];" parent="_dm25giHvy8EGH1Nbq3g-9" vertex="1" connectable="0">
          <mxGeometry x="0.2133" y="-1" relative="1" as="geometry">
            <mxPoint as="offset" />
          </mxGeometry>
        </mxCell>
        <mxCell id="_dm25giHvy8EGH1Nbq3g-12" value="" style="edgeStyle=orthogonalEdgeStyle;rounded=0;orthogonalLoop=1;jettySize=auto;html=1;" parent="1" source="_dm25giHvy8EGH1Nbq3g-4" target="_dm25giHvy8EGH1Nbq3g-11" edge="1">
          <mxGeometry relative="1" as="geometry" />
        </mxCell>
        <mxCell id="_dm25giHvy8EGH1Nbq3g-4" value="查找api" style="strokeWidth=2;html=1;shape=mxgraph.flowchart.decision;whiteSpace=wrap;" parent="1" vertex="1">
          <mxGeometry x="190" y="790" width="100" height="100" as="geometry" />
        </mxCell>
        <mxCell id="_dm25giHvy8EGH1Nbq3g-8" value="返回失败" style="ellipse;whiteSpace=wrap;html=1;strokeWidth=2;" parent="1" vertex="1">
          <mxGeometry x="440" y="800" width="120" height="80" as="geometry" />
        </mxCell>
        <mxCell id="_dm25giHvy8EGH1Nbq3g-14" value="" style="edgeStyle=orthogonalEdgeStyle;rounded=0;orthogonalLoop=1;jettySize=auto;html=1;" parent="1" source="_dm25giHvy8EGH1Nbq3g-11" target="_dm25giHvy8EGH1Nbq3g-13" edge="1">
          <mxGeometry relative="1" as="geometry" />
        </mxCell>
        <mxCell id="_dm25giHvy8EGH1Nbq3g-15" value="未找到" style="edgeLabel;html=1;align=center;verticalAlign=middle;resizable=0;points=[];" parent="_dm25giHvy8EGH1Nbq3g-14" vertex="1" connectable="0">
          <mxGeometry x="0.2267" y="2" relative="1" as="geometry">
            <mxPoint as="offset" />
          </mxGeometry>
        </mxCell>
        <mxCell id="_dm25giHvy8EGH1Nbq3g-17" value="" style="edgeStyle=orthogonalEdgeStyle;rounded=0;orthogonalLoop=1;jettySize=auto;html=1;" parent="1" source="_dm25giHvy8EGH1Nbq3g-11" target="_dm25giHvy8EGH1Nbq3g-16" edge="1">
          <mxGeometry relative="1" as="geometry" />
        </mxCell>
        <mxCell id="_dm25giHvy8EGH1Nbq3g-11" value="查找客户端" style="strokeWidth=2;html=1;shape=mxgraph.flowchart.decision;whiteSpace=wrap;" parent="1" vertex="1">
          <mxGeometry x="190" y="970" width="100" height="100" as="geometry" />
        </mxCell>
        <mxCell id="_dm25giHvy8EGH1Nbq3g-13" value="返回失败" style="ellipse;whiteSpace=wrap;html=1;strokeWidth=2;" parent="1" vertex="1">
          <mxGeometry x="440" y="980" width="120" height="80" as="geometry" />
        </mxCell>
        <mxCell id="_dm25giHvy8EGH1Nbq3g-19" value="" style="edgeStyle=orthogonalEdgeStyle;rounded=0;orthogonalLoop=1;jettySize=auto;html=1;" parent="1" source="_dm25giHvy8EGH1Nbq3g-16" target="_dm25giHvy8EGH1Nbq3g-18" edge="1">
          <mxGeometry relative="1" as="geometry" />
        </mxCell>
        <mxCell id="_dm25giHvy8EGH1Nbq3g-20" value="没有权限" style="edgeLabel;html=1;align=center;verticalAlign=middle;resizable=0;points=[];" parent="_dm25giHvy8EGH1Nbq3g-19" vertex="1" connectable="0">
          <mxGeometry x="0.125" y="-2" relative="1" as="geometry">
            <mxPoint as="offset" />
          </mxGeometry>
        </mxCell>
        <mxCell id="_dm25giHvy8EGH1Nbq3g-22" value="" style="edgeStyle=orthogonalEdgeStyle;rounded=0;orthogonalLoop=1;jettySize=auto;html=1;" parent="1" source="_dm25giHvy8EGH1Nbq3g-16" target="_dm25giHvy8EGH1Nbq3g-21" edge="1">
          <mxGeometry relative="1" as="geometry" />
        </mxCell>
        <mxCell id="_dm25giHvy8EGH1Nbq3g-16" value="客户端是否拥有api权限" style="strokeWidth=2;html=1;shape=mxgraph.flowchart.decision;whiteSpace=wrap;" parent="1" vertex="1">
          <mxGeometry x="190" y="1150" width="100" height="100" as="geometry" />
        </mxCell>
        <mxCell id="_dm25giHvy8EGH1Nbq3g-18" value="返回失败" style="ellipse;whiteSpace=wrap;html=1;strokeWidth=2;" parent="1" vertex="1">
          <mxGeometry x="450" y="1160" width="120" height="80" as="geometry" />
        </mxCell>
        <mxCell id="_dm25giHvy8EGH1Nbq3g-21" value="访问31内部服务" style="whiteSpace=wrap;html=1;strokeWidth=2;" parent="1" vertex="1">
          <mxGeometry x="180" y="1350" width="120" height="60" as="geometry" />
        </mxCell>
        <mxCell id="_dm25giHvy8EGH1Nbq3g-26" value="" style="edgeStyle=orthogonalEdgeStyle;rounded=0;orthogonalLoop=1;jettySize=auto;html=1;" parent="1" source="_dm25giHvy8EGH1Nbq3g-24" target="_dm25giHvy8EGH1Nbq3g-25" edge="1">
          <mxGeometry relative="1" as="geometry" />
        </mxCell>
        <mxCell id="_dm25giHvy8EGH1Nbq3g-24" value="访问第三方" style="verticalLabelPosition=bottom;verticalAlign=top;html=1;shape=mxgraph.flowchart.on-page_reference;" parent="1" vertex="1">
          <mxGeometry x="210" y="1490" width="60" height="60" as="geometry" />
        </mxCell>
        <mxCell id="_dm25giHvy8EGH1Nbq3g-28" value="查找失败" style="edgeStyle=orthogonalEdgeStyle;rounded=0;orthogonalLoop=1;jettySize=auto;html=1;" parent="1" source="_dm25giHvy8EGH1Nbq3g-25" target="_dm25giHvy8EGH1Nbq3g-27" edge="1">
          <mxGeometry relative="1" as="geometry">
            <Array as="points">
              <mxPoint x="350" y="1720" />
              <mxPoint x="350" y="1720" />
            </Array>
          </mxGeometry>
        </mxCell>
        <mxCell id="_dm25giHvy8EGH1Nbq3g-31" value="" style="edgeStyle=orthogonalEdgeStyle;rounded=0;orthogonalLoop=1;jettySize=auto;html=1;" parent="1" source="_dm25giHvy8EGH1Nbq3g-25" target="_dm25giHvy8EGH1Nbq3g-30" edge="1">
          <mxGeometry relative="1" as="geometry" />
        </mxCell>
        <mxCell id="_dm25giHvy8EGH1Nbq3g-25" value="查找api" style="rhombus;whiteSpace=wrap;html=1;verticalAlign=top;" parent="1" vertex="1">
          <mxGeometry x="200" y="1680" width="80" height="80" as="geometry" />
        </mxCell>
        <mxCell id="_dm25giHvy8EGH1Nbq3g-27" value="返回错误" style="ellipse;whiteSpace=wrap;html=1;verticalAlign=top;" parent="1" vertex="1">
          <mxGeometry x="440" y="1680" width="120" height="80" as="geometry" />
        </mxCell>
        <mxCell id="_dm25giHvy8EGH1Nbq3g-33" value="" style="edgeStyle=orthogonalEdgeStyle;rounded=0;orthogonalLoop=1;jettySize=auto;html=1;" parent="1" source="_dm25giHvy8EGH1Nbq3g-30" target="_dm25giHvy8EGH1Nbq3g-32" edge="1">
          <mxGeometry relative="1" as="geometry" />
        </mxCell>
        <mxCell id="_dm25giHvy8EGH1Nbq3g-34" value="查找失败" style="edgeLabel;html=1;align=center;verticalAlign=middle;resizable=0;points=[];" parent="_dm25giHvy8EGH1Nbq3g-33" vertex="1" connectable="0">
          <mxGeometry x="0.175" y="1" relative="1" as="geometry">
            <mxPoint as="offset" />
          </mxGeometry>
        </mxCell>
        <mxCell id="_dm25giHvy8EGH1Nbq3g-36" value="" style="edgeStyle=orthogonalEdgeStyle;rounded=0;orthogonalLoop=1;jettySize=auto;html=1;" parent="1" source="_dm25giHvy8EGH1Nbq3g-30" target="_dm25giHvy8EGH1Nbq3g-35" edge="1">
          <mxGeometry relative="1" as="geometry" />
        </mxCell>
        <mxCell id="_dm25giHvy8EGH1Nbq3g-30" value="查找客户端配置" style="rhombus;whiteSpace=wrap;html=1;verticalAlign=top;" parent="1" vertex="1">
          <mxGeometry x="200" y="1840" width="80" height="80" as="geometry" />
        </mxCell>
        <mxCell id="_dm25giHvy8EGH1Nbq3g-32" value="返回错误" style="ellipse;whiteSpace=wrap;html=1;verticalAlign=top;" parent="1" vertex="1">
          <mxGeometry x="440" y="1840" width="120" height="80" as="geometry" />
        </mxCell>
        <mxCell id="_dm25giHvy8EGH1Nbq3g-38" value="" style="edgeStyle=orthogonalEdgeStyle;rounded=0;orthogonalLoop=1;jettySize=auto;html=1;" parent="1" source="_dm25giHvy8EGH1Nbq3g-35" target="_dm25giHvy8EGH1Nbq3g-37" edge="1">
          <mxGeometry relative="1" as="geometry" />
        </mxCell>
        <mxCell id="_dm25giHvy8EGH1Nbq3g-39" value="查找失败" style="edgeLabel;html=1;align=center;verticalAlign=middle;resizable=0;points=[];" parent="_dm25giHvy8EGH1Nbq3g-38" vertex="1" connectable="0">
          <mxGeometry x="0.25" y="2" relative="1" as="geometry">
            <mxPoint as="offset" />
          </mxGeometry>
        </mxCell>
        <mxCell id="_dm25giHvy8EGH1Nbq3g-41" value="" style="edgeStyle=orthogonalEdgeStyle;rounded=0;orthogonalLoop=1;jettySize=auto;html=1;" parent="1" source="_dm25giHvy8EGH1Nbq3g-35" target="_dm25giHvy8EGH1Nbq3g-40" edge="1">
          <mxGeometry relative="1" as="geometry" />
        </mxCell>
        <mxCell id="_dm25giHvy8EGH1Nbq3g-35" value="查找代理" style="rhombus;whiteSpace=wrap;html=1;verticalAlign=top;" parent="1" vertex="1">
          <mxGeometry x="200" y="2000" width="80" height="80" as="geometry" />
        </mxCell>
        <mxCell id="_dm25giHvy8EGH1Nbq3g-37" value="返回错误" style="ellipse;whiteSpace=wrap;html=1;verticalAlign=top;" parent="1" vertex="1">
          <mxGeometry x="440" y="2000" width="120" height="80" as="geometry" />
        </mxCell>
        <mxCell id="_dm25giHvy8EGH1Nbq3g-40" value="代理访问第三" style="whiteSpace=wrap;html=1;verticalAlign=top;" parent="1" vertex="1">
          <mxGeometry x="180" y="2170" width="120" height="60" as="geometry" />
        </mxCell>
        <mxCell id="p3LBFmmlEpDV6VU3JNH3-2" value="第三方" style="shape=umlLifeline;participant=umlActor;perimeter=lifelinePerimeter;whiteSpace=wrap;html=1;container=1;collapsible=0;recursiveResize=0;verticalAlign=top;spacingTop=36;outlineConnect=0;" vertex="1" parent="1">
          <mxGeometry x="100" y="-570" width="20" height="300" as="geometry" />
        </mxCell>
        <mxCell id="p3LBFmmlEpDV6VU3JNH3-3" value="网关" style="shape=umlLifeline;participant=umlEntity;perimeter=lifelinePerimeter;whiteSpace=wrap;html=1;container=1;collapsible=0;recursiveResize=0;verticalAlign=top;spacingTop=36;outlineConnect=0;" vertex="1" parent="1">
          <mxGeometry x="220" y="-570" width="40" height="300" as="geometry" />
        </mxCell>
        <mxCell id="p3LBFmmlEpDV6VU3JNH3-10" value="鉴权" style="html=1;points=[];perimeter=orthogonalPerimeter;" vertex="1" parent="p3LBFmmlEpDV6VU3JNH3-3">
          <mxGeometry x="15" y="90" width="10" height="170" as="geometry" />
        </mxCell>
        <mxCell id="p3LBFmmlEpDV6VU3JNH3-4" value="开放平台" style="shape=umlLifeline;participant=umlEntity;perimeter=lifelinePerimeter;whiteSpace=wrap;html=1;container=1;collapsible=0;recursiveResize=0;verticalAlign=top;spacingTop=36;outlineConnect=0;" vertex="1" parent="1">
          <mxGeometry x="373.5" y="-570" width="40" height="300" as="geometry" />
        </mxCell>
        <mxCell id="p3LBFmmlEpDV6VU3JNH3-13" value="" style="html=1;points=[];perimeter=orthogonalPerimeter;" vertex="1" parent="p3LBFmmlEpDV6VU3JNH3-4">
          <mxGeometry x="15" y="130" width="10" height="130" as="geometry" />
        </mxCell>
        <mxCell id="p3LBFmmlEpDV6VU3JNH3-5" value="31服务" style="shape=umlLifeline;participant=umlEntity;perimeter=lifelinePerimeter;whiteSpace=wrap;html=1;container=1;collapsible=0;recursiveResize=0;verticalAlign=top;spacingTop=36;outlineConnect=0;" vertex="1" parent="1">
          <mxGeometry x="550" y="-570" width="40" height="300" as="geometry" />
        </mxCell>
        <mxCell id="p3LBFmmlEpDV6VU3JNH3-20" value="" style="html=1;points=[];perimeter=orthogonalPerimeter;" vertex="1" parent="p3LBFmmlEpDV6VU3JNH3-5">
          <mxGeometry x="15" y="170" width="10" height="80" as="geometry" />
        </mxCell>
        <mxCell id="p3LBFmmlEpDV6VU3JNH3-11" value="请求" style="html=1;verticalAlign=bottom;endArrow=block;entryX=1;entryY=0;" edge="1" target="p3LBFmmlEpDV6VU3JNH3-10" parent="1" source="p3LBFmmlEpDV6VU3JNH3-2">
          <mxGeometry relative="1" as="geometry">
            <mxPoint x="290" y="-480" as="sourcePoint" />
          </mxGeometry>
        </mxCell>
        <mxCell id="p3LBFmmlEpDV6VU3JNH3-14" value="访问开放平台" style="html=1;verticalAlign=bottom;endArrow=block;" edge="1" parent="1" source="p3LBFmmlEpDV6VU3JNH3-3">
          <mxGeometry x="-0.0333" y="20" relative="1" as="geometry">
            <mxPoint x="459" y="-430" as="sourcePoint" />
            <mxPoint x="394" y="-430" as="targetPoint" />
            <mxPoint as="offset" />
          </mxGeometry>
        </mxCell>
        <mxCell id="p3LBFmmlEpDV6VU3JNH3-16" value="访问内部服务" style="html=1;verticalAlign=bottom;endArrow=block;" edge="1" parent="1" target="p3LBFmmlEpDV6VU3JNH3-5">
          <mxGeometry x="-0.056" y="10" width="80" relative="1" as="geometry">
            <mxPoint x="400" y="-400" as="sourcePoint" />
            <mxPoint x="480" y="-400" as="targetPoint" />
            <mxPoint as="offset" />
          </mxGeometry>
        </mxCell>
        <mxCell id="p3LBFmmlEpDV6VU3JNH3-21" value="dispatch" style="html=1;verticalAlign=bottom;endArrow=block;entryX=0;entryY=0;" edge="1" target="p3LBFmmlEpDV6VU3JNH3-20" parent="1">
          <mxGeometry relative="1" as="geometry">
            <mxPoint x="500" y="-400" as="sourcePoint" />
          </mxGeometry>
        </mxCell>
        <mxCell id="p3LBFmmlEpDV6VU3JNH3-27" value="return" style="html=1;verticalAlign=bottom;endArrow=open;dashed=1;endSize=8;" edge="1" parent="1" source="p3LBFmmlEpDV6VU3JNH3-5" target="p3LBFmmlEpDV6VU3JNH3-4">
          <mxGeometry relative="1" as="geometry">
            <mxPoint x="450" y="-380" as="sourcePoint" />
            <mxPoint x="370" y="-380" as="targetPoint" />
            <Array as="points">
              <mxPoint x="530" y="-370" />
            </Array>
          </mxGeometry>
        </mxCell>
        <mxCell id="p3LBFmmlEpDV6VU3JNH3-28" value="return" style="html=1;verticalAlign=bottom;endArrow=open;dashed=1;endSize=8;" edge="1" parent="1" target="p3LBFmmlEpDV6VU3JNH3-10">
          <mxGeometry relative="1" as="geometry">
            <mxPoint x="390" y="-340" as="sourcePoint" />
            <mxPoint x="310" y="-340" as="targetPoint" />
          </mxGeometry>
        </mxCell>
        <mxCell id="p3LBFmmlEpDV6VU3JNH3-30" value="return" style="html=1;verticalAlign=bottom;endArrow=open;dashed=1;endSize=8;" edge="1" parent="1" target="p3LBFmmlEpDV6VU3JNH3-2">
          <mxGeometry relative="1" as="geometry">
            <mxPoint x="230" y="-320" as="sourcePoint" />
            <mxPoint x="150" y="-320" as="targetPoint" />
          </mxGeometry>
        </mxCell>
      </root>
    </mxGraphModel>
  </diagram>
</mxfile>
